# xmcd
#
# Track frame offsets:
#	150
#	21372
#	42588
#	58326
#	74064
#	96816
#	118271
#	149192
#	180113
#	194338
#	208563
#	219360
#	230157
#	251058
#	271959
#	292400
#	312841
#	332587
#
# Disc length: 4448 seconds
#
# Revision: 0
# Processed by: cddbd v1.5.2PL0 Copyright (c) Steve Scherf et al.
# Submitted via: EasyCDDAExtractor 9.0.0.1
#
DISCID=2f115e12
DTITLE=Hal Leonard - Stevie Ray Vaughan
DYEAR=2006
DGENRE=Instructional
TTITLE0=Couldn't Stand the Weather
TTITLE1=Couldn't Stand the Weather - Backing Track
TTITLE2=Empty Arms
TTITLE3=Empty Arms - Backing Track
TTITLE4=Lenny
TTITLE5=Lenny - Backing Track
TTITLE6=Little Wing
TTITLE7=Little Wing - Backing Track
TTITLE8=Look at Little Sister
TTITLE9=Look at Little Sister - Backing Track
TTITLE10=Love Struck Baby
TTITLE11=Love Struck Baby - Backing Track
TTITLE12=The Sky Is Crying
TTITLE13=The Sky Is Crying - Backing Track
TTITLE14=Tightrope
TTITLE15=Tightrope - Backing Track
TTITLE16=Eb Tuning Notes
TTITLE17=CD ROM
EXTD=
EXTT0=
EXTT1=
EXTT2=
EXTT3=
EXTT4=
EXTT5=
EXTT6=
EXTT7=
EXTT8=
EXTT9=
EXTT10=
EXTT11=
EXTT12=
EXTT13=
EXTT14=
EXTT15=
EXTT16=
EXTT17=
PLAYORDER=
